<svg width="50" height="50" viewBox="0 0 50 50" fill="none" xmlns="http://www.w3.org/2000/svg">
<path d="M25 1.04167C24.2245 1.03992 23.4688 1.28604 22.8431 1.74411C22.2174 2.20218 21.7544 2.84822 21.5218 3.58797C21.2892 4.32772 21.299 5.12245 21.55 5.85619C21.8009 6.58993 22.2797 7.22428 22.9166 7.66667V10.5833C21.0416 10.8542 19.2916 11.4583 17.7083 12.375L15.3958 9.0625C15.7916 7.97917 15.6875 6.72917 14.9791 5.72917C14.25 4.70833 13.125 4.16667 11.9791 4.16667C11.25 4.16667 10.5208 4.375 9.8958 4.83333C8.24997 5.97917 7.8333 8.25 8.99997 9.89583C9.7083 10.9167 10.8333 11.4583 11.9791 11.4583L14.4375 14.9583C13.5416 15.8542 12.8333 16.8542 12.2291 17.9583C11.8125 17.7917 11.375 17.7083 10.9375 17.7083C9.99997 17.7083 9.06247 18.0625 8.3333 18.75C6.93747 20.2083 6.93747 22.5 8.3333 23.9583C8.93747 24.5208 9.66664 24.8333 10.4166 25C10.4166 26.125 10.5625 27.2083 10.7916 28.25L8.06247 28.9792C7.41664 28.4375 6.5833 28.125 5.72914 28.125C5.41664 28.125 5.0833 28.125 4.7708 28.25C3.83718 28.5044 3.04279 29.1192 2.56227 29.9591C2.08175 30.799 1.95443 31.7954 2.2083 32.7292C2.6458 34.375 4.16664 35.4167 5.72914 35.4167C6.04164 35.4167 6.35414 35.4167 6.68747 35.2917C7.87497 34.9583 8.7708 34.0833 9.1458 33L12.2916 32.1458C13.2291 33.7917 14.4791 35.25 15.9375 36.4583L13.6458 40.625C12.5 40.7917 11.4583 41.4375 10.8541 42.5417C10.6271 42.963 10.4852 43.4249 10.4366 43.9011C10.3881 44.3772 10.4338 44.8583 10.5711 45.3168C10.7085 45.7753 10.9348 46.2022 11.2372 46.5732C11.5395 46.9442 11.912 47.2521 12.3333 47.4792C12.7546 47.7062 13.2166 47.8481 13.6927 47.8967C14.1689 47.9452 14.6499 47.8995 15.1084 47.7622C15.5669 47.6248 15.9938 47.3985 16.3649 47.0961C16.7359 46.7938 17.0437 46.4213 17.2708 46C17.8541 44.9167 17.8333 43.6667 17.3125 42.6458L19.5416 38.5417C21.2291 39.2083 23.0625 39.5833 25 39.5833H25.375C25.1041 40.125 25 40.75 25 41.4167C25.1666 43.3333 26.75 44.7917 28.6458 44.7917H28.9166C30.9375 44.625 32.4375 42.875 32.2916 40.875C32.2083 39.8333 31.6875 38.9167 30.9375 38.3125C31.9166 37.875 32.8541 37.3125 33.7291 36.6667L38.6041 41.5417C38.3958 42.7083 38.7291 43.8958 39.5833 44.7917C40.3125 45.4792 41.25 45.8333 42.1875 45.8333C43.125 45.8333 44.0625 45.4792 44.7916 44.7917C46.1875 43.3333 46.1875 41.0417 44.7916 39.5833C44.0625 38.8958 43.125 38.5417 42.1875 38.5417C41.9791 38.5417 41.7708 38.5417 41.5416 38.6042L36.6666 33.7292C37.6875 32.375 38.4791 30.8333 38.9791 29.1667H41.2916C41.734 29.8036 42.3684 30.2824 43.1021 30.5333C43.8359 30.7843 44.6306 30.7941 45.3703 30.5615C46.1101 30.3289 46.7561 29.8659 47.2142 29.2402C47.6723 28.6145 47.9184 27.8588 47.9166 27.0833C47.9184 26.3079 47.6723 25.5522 47.2142 24.9264C46.7561 24.3007 46.1101 23.8378 45.3703 23.6052C44.6306 23.3725 43.8359 23.3824 43.1021 23.6333C42.3684 23.8843 41.734 24.3631 41.2916 25H39.5833C39.5833 21.7292 38.5416 18.75 36.6666 16.2708L39.4583 13.4792C39.6875 13.5417 39.8958 13.5417 40.1041 13.5417C41.0416 13.5417 41.9791 13.1875 42.7083 12.5C44.1041 11.0625 44.1041 8.75 42.7083 7.29167C41.9791 6.60417 41.0416 6.25 40.1041 6.25C39.1666 6.25 38.2291 6.60417 37.5 7.29167C36.6458 8.1875 36.3125 9.375 36.5208 10.5417L33.7291 13.3333C31.8125 11.8958 29.5625 10.9375 27.0833 10.5833V7.66667C27.7202 7.22428 28.199 6.58993 28.45 5.85619C28.7009 5.12245 28.7108 4.32772 28.4781 3.58797C28.2455 2.84822 27.7826 2.20218 27.1569 1.74411C26.5312 1.28604 25.7754 1.03992 25 1.04167ZM25 35.4167C19.25 35.4167 14.5833 30.75 14.5833 25C14.5833 19.25 19.25 14.5833 25 14.5833C30.75 14.5833 35.4166 19.25 35.4166 25C35.4166 30.75 30.75 35.4167 25 35.4167ZM21.875 18.75C20.1458 18.75 18.75 20.1458 18.75 21.875C18.75 23.6042 20.1458 25 21.875 25C23.6041 25 25 23.6042 25 21.875C25 20.1458 23.6041 18.75 21.875 18.75ZM29.1666 27.0833C28.0208 27.0833 27.0833 28.0208 27.0833 29.1667C27.0833 30.3125 28.0208 31.25 29.1666 31.25C30.3125 31.25 31.25 30.3125 31.25 29.1667C31.25 28.0208 30.3125 27.0833 29.1666 27.0833Z" fill="#D59EF5"/>
</svg>
