<svg width="50" height="50" viewBox="0 0 50 50" fill="none" xmlns="http://www.w3.org/2000/svg">
<path d="M4.16667 0C1.875 0 0 1.875 0 4.16667V12.5H4.16667V4.16667H12.5V0H4.16667ZM37.5 0V4.16667H45.8333V12.5H50V4.16667C50 1.875 48.125 0 45.8333 0H37.5ZM19.7917 27.0833C18.125 27.0833 16.6667 25.625 16.6667 23.9583C16.6667 22.2917 18.125 20.8333 19.7917 20.8333C21.4583 20.8333 22.9167 22.2917 22.9167 23.9583C22.9167 25.625 21.4583 27.0833 19.7917 27.0833ZM22.9167 31.25L25 27.0833L27.0833 31.25H22.9167ZM30.2083 27.0833C28.5417 27.0833 27.0833 25.625 27.0833 23.9583C27.0833 22.2917 28.5417 20.8333 30.2083 20.8333C31.875 20.8333 33.3333 22.2917 33.3333 23.9583C33.3333 25.625 31.875 27.0833 30.2083 27.0833ZM0 37.5V45.8333C0 48.125 1.875 50 4.16667 50H12.5V45.8333H4.16667V37.5H0ZM45.8333 37.5V45.8333H37.5V50H45.8333C48.125 50 50 48.125 50 45.8333V37.5H45.8333ZM25 6.25C15.8333 6.25 8.33333 13.75 8.33333 22.9167C8.33333 27.0833 10 31.0417 12.5 33.9583V43.75H37.5V33.9583C40 31.0417 41.6667 27.2917 41.6667 22.9167C41.6667 13.75 34.1667 6.25 25 6.25ZM33.3333 32.0833V39.5833H29.1667V35.4167H27.0833V39.5833H22.9167V35.4167H20.8333V39.5833H16.6667V32.0833C14.1667 29.7917 12.5 26.4583 12.5 22.9167C12.5 16.0417 18.125 10.4167 25 10.4167C31.875 10.4167 37.5 16.0417 37.5 22.9167C37.5 26.6667 35.8333 29.7917 33.3333 32.0833Z" fill="#FF96A6"/>
</svg>
