<svg width="50" height="50" viewBox="0 0 50 50" fill="none" xmlns="http://www.w3.org/2000/svg">
<path d="M38.5417 7.29166L7.29169 38.5417L11.4584 42.7083L42.7084 11.4583L38.5417 7.29166ZM14.5834 8.33332C12.9258 8.33332 11.336 8.9918 10.1639 10.1639C8.99183 11.336 8.33335 12.9257 8.33335 14.5833C8.33335 16.2409 8.99183 17.8306 10.1639 19.0027C11.336 20.1748 12.9258 20.8333 14.5834 20.8333C16.241 20.8333 17.8307 20.1748 19.0028 19.0027C20.1749 17.8306 20.8334 16.2409 20.8334 14.5833C20.8334 12.9257 20.1749 11.336 19.0028 10.1639C17.8307 8.9918 16.241 8.33332 14.5834 8.33332ZM35.4167 29.1667C33.7591 29.1667 32.1694 29.8251 30.9973 30.9972C29.8252 32.1693 29.1667 33.7591 29.1667 35.4167C29.1667 37.0743 29.8252 38.664 30.9973 39.8361C32.1694 41.0082 33.7591 41.6667 35.4167 41.6667C37.0743 41.6667 38.664 41.0082 39.8361 39.8361C41.0082 38.664 41.6667 37.0743 41.6667 35.4167C41.6667 33.7591 41.0082 32.1693 39.8361 30.9972C38.664 29.8251 37.0743 29.1667 35.4167 29.1667Z" fill="#FFFFFF"/>
</svg>
