<svg width="50" height="50" viewBox="0 0 50 50" fill="none" xmlns="http://www.w3.org/2000/svg">
<path d="M15.25 22L17.4583 19.7917L15.25 17.5833L17.4583 15.375L21.875 19.7917L17.4583 24.2083L15.25 22ZM9.375 18.75H9.54167C12.0208 12.6458 18 8.33333 25 8.33333C29.5625 8.33333 33.6667 10.1667 36.6875 13.125C37 11.875 37.625 10.4167 38.375 9.04166C34.6312 5.89 29.8938 4.16327 25 4.16666C14.8125 4.16666 6.35417 11.4583 4.54167 21.125C5.70833 19.6667 7.47917 18.75 9.375 18.75ZM43.75 21.875C42.875 21.875 42.0417 21.6875 41.2708 21.4167C41.5208 22.5625 41.6667 23.7708 41.6667 25C41.6667 34.2083 34.2083 41.6667 25 41.6667C18 41.6667 12.0208 37.3542 9.54167 31.25H9.375C8.33333 31.25 7.20833 30.9583 6.25 30.4167C5.58333 30.0417 5.02083 29.5417 4.54167 28.9583C6.39583 38.5417 14.8125 45.8333 25 45.8333C36.4583 45.8333 45.8333 36.4583 45.8333 25C45.8333 23.8542 45.7083 22.7292 45.5417 21.625C44.9571 21.7824 44.3553 21.8664 43.75 21.875ZM43.75 6.24999C43.75 6.24999 39.5833 12.2917 39.5833 14.5833C39.5833 16.875 41.4583 18.75 43.75 18.75C46.0417 18.75 47.9167 16.875 47.9167 14.5833C47.9167 12.2917 43.75 6.24999 43.75 6.24999ZM32.5417 15.375L28.125 19.7917L32.5417 24.2083L34.75 22L32.5417 19.7917L34.75 17.5833L32.5417 15.375ZM17.8333 35.4167C19.2708 32.9375 21.9375 31.25 25 31.25C28.0625 31.25 30.7292 32.9375 32.1667 35.4167H35.6667C34 31.1458 29.8542 28.125 25 28.125C23.1875 28.125 21.4583 28.5417 19.9375 29.3125L12.5 25C12.5 23.9583 11.9375 22.9167 10.9375 22.3125C9.4375 21.4583 7.54167 21.9583 6.66667 23.4583C5.8125 25 6.3125 26.8542 7.8125 27.7292C8.8125 28.3125 10 28.25 10.9167 27.7292L17.1042 31.3125C15.9167 32.4167 14.9583 33.8333 14.3333 35.4167H17.8333Z" fill="#FEFF89"/>
</svg>
