<svg width="50" height="50" viewBox="0 0 50 50" fill="none" xmlns="http://www.w3.org/2000/svg">
<path d="M8.79166 23.5208L23.5208 8.79167C25.8684 6.45007 29.0488 5.13507 32.3646 5.13507C35.6803 5.13507 38.8608 6.45007 41.2083 8.79167C46.0833 13.6667 46.0833 21.5833 41.2083 26.4792L26.4792 41.2083C21.5833 46.0833 13.6667 46.0833 8.79166 41.2083C6.45006 38.8608 5.13506 35.6803 5.13506 32.3646C5.13506 29.0488 6.45006 25.8684 8.79166 23.5208ZM11.75 26.4792C10.7109 27.5089 9.96307 28.7954 9.5825 30.2079C9.20193 31.6204 9.20222 33.1085 9.58333 34.5208L22.0625 22.0625L30.8958 30.8958L38.25 23.5208C39.0272 22.7504 39.644 21.8336 40.065 20.8234C40.486 19.8133 40.7027 18.7298 40.7027 17.6354C40.7027 16.5411 40.486 15.4575 40.065 14.4474C39.644 13.4373 39.0272 12.5205 38.25 11.75C37.4795 10.9728 36.5628 10.356 35.5526 9.93499C34.5425 9.51402 33.4589 9.29728 32.3646 9.29728C31.2702 9.29728 30.1867 9.51402 29.1766 9.93499C28.1664 10.356 27.2496 10.9728 26.4792 11.75L11.75 26.4792Z" fill="#81F1DC"/>
</svg>
