<svg width="100" height="50" viewBox="0 0 100 50" fill="none" xmlns="http://www.w3.org/2000/svg">
<path d="M8.79166 23.5208L23.5208 8.79167C25.8684 6.45007 29.0488 5.13507 32.3646 5.13507C35.6803 5.13507 38.8608 6.45007 41.2083 8.79167C46.0833 13.6667 46.0833 21.5833 41.2083 26.4792L26.4792 41.2083C21.5833 46.0833 13.6667 46.0833 8.79166 41.2083C6.45006 38.8608 5.13506 35.6803 5.13506 32.3646C5.13506 29.0488 6.45006 25.8684 8.79166 23.5208ZM11.75 26.4792C10.7109 27.5089 9.96307 28.7954 9.5825 30.2079C9.20193 31.6204 9.20222 33.1085 9.58333 34.5208L22.0625 22.0625L30.8958 30.8958L38.25 23.5208C39.0272 22.7504 39.644 21.8336 40.065 20.8234C40.486 19.8133 40.7027 18.7298 40.7027 17.6354C40.7027 16.5411 40.486 15.4575 40.065 14.4474C39.644 13.4373 39.0272 12.5205 38.25 11.75C37.4795 10.9728 36.5628 10.356 35.5526 9.93499C34.5425 9.51402 33.4589 9.29728 32.3646 9.29728C31.2702 9.29728 30.1867 9.51402 29.1766 9.93499C28.1664 10.356 27.2496 10.9728 26.4792 11.75L11.75 26.4792Z" fill="#81F1DC"/>
<path d="M87.5417 7.29169L56.2917 38.5417L60.4583 42.7084L91.7083 11.4584L87.5417 7.29169ZM63.5833 8.33335C61.9257 8.33335 60.336 8.99183 59.1639 10.1639C57.9918 11.336 57.3333 12.9258 57.3333 14.5834C57.3333 16.241 57.9918 17.8307 59.1639 19.0028C60.336 20.1749 61.9257 20.8334 63.5833 20.8334C65.2409 20.8334 66.8306 20.1749 68.0027 19.0028C69.1749 17.8307 69.8333 16.241 69.8333 14.5834C69.8333 12.9258 69.1749 11.336 68.0027 10.1639C66.8306 8.99183 65.2409 8.33335 63.5833 8.33335ZM84.4167 29.1667C82.7591 29.1667 81.1693 29.8252 79.9972 30.9973C78.8251 32.1694 78.1667 33.7591 78.1667 35.4167C78.1667 37.0743 78.8251 38.664 79.9972 39.8361C81.1693 41.0082 82.7591 41.6667 84.4167 41.6667C86.0743 41.6667 87.664 41.0082 88.8361 39.8361C90.0082 38.664 90.6667 37.0743 90.6667 35.4167C90.6667 33.7591 90.0082 32.1694 88.8361 30.9973C87.664 29.8252 86.0743 29.1667 84.4167 29.1667Z" fill="#81F1DC"/>
</svg>
